<svg xmlns="http://www.w3.org/2000/svg" width="511" height="135" viewBox="0 0 511 135" fill="none">
  <path d="M117.974 33.679 99.753 44.197c-.707-1.237-1.741-2.292-3.017-3.025L63.724 22.127a8.3 8.3 0 0 0-8.254 0L22.459 41.172c-1.273.733-2.31 1.788-3.017 3.025L1.221 33.679a9.2 9.2 0 0 1 3.355-3.355L55.008 1.229a9.2 9.2 0 0 1 9.171 0l50.432 29.095a9.2 9.2 0 0 1 3.355 3.355h.008Z" fill="#E5262B"/>
  <path d="M59.6 113.687v21.025a9.2 9.2 0 0 1-4.584-1.229L4.584 104.388A9.2 9.2 0 0 1 0 96.438v-58.17c0-1.643.439-3.218 1.229-4.595L19.45 44.19a8.2 8.2 0 0 0-1.11 4.127v38.072a8.2 8.2 0 0 0 4.127 7.152l33.011 19.044a8.2 8.2 0 0 0 4.127 1.1l-.005.002Z" fill="#01A4E1"/>
  <path d="M85.961 82.939a7.4 7.4 0 0 1-2.721 2.656L62.948 97.02a7.4 7.4 0 0 1-7.334-.078L35.568 85.094a7.4 7.4 0 0 1-2.656-2.714l9.159-5.153 34.846.366 9.046 5.344-.002.002Z" fill="#C82230"/>
  <path d="m59.928 36.751-.109 10.497-17.738 29.986-9.158 5.153a7.4 7.4 0 0 1-.944-3.677l.245-23.276a7.4 7.4 0 0 1 3.734-6.312L56.25 37.697a7.4 7.4 0 0 1 3.678-.943v-.003Z" fill="#019D60"/>
  <path d="m87.237 56.01-.244 23.275a7.4 7.4 0 0 1-1.022 3.657l-9.046-5.343-17.112-30.35.11-10.497a7.4 7.4 0 0 1 3.656 1.021l20.048 11.849a7.4 7.4 0 0 1 3.61 6.39v-.002Z" fill="#F3C701"/>
  <path d="M119.199 38.271v58.171a9.2 9.2 0 0 1-4.584 7.95l-50.431 29.094a9.2 9.2 0 0 1-4.585 1.229V113.69a8.2 8.2 0 0 0 4.127-1.099l33.011-19.045a8.2 8.2 0 0 0 4.127-7.152V48.323a8.2 8.2 0 0 0-1.109-4.127l18.22-10.518a9.2 9.2 0 0 1 1.23 4.595l-.006-.002Z" fill="#A81D81"/>
  <g fill="#E5262B">
    <path d="m134 45 25 45h15l-8-14h25l8 14h16l-25-45h-18l-24 43 8-29h-15l-7 14-8-14h-15l17 31h15l25-45h-14l-18 31-18-31h16Zm38 21 7-12 7 12h-14Z"/>
    <path d="m215 45 25 45h15l-8-14h25l8 14h16l-25-45h-18l-25 45h15l7-14h-23l6-10h12l7-12 7 12h-12l5 10h25l-18-31h-18l-26 45h15l-25-45h-15Z"/>
    <path d="M304 45c-12 0-20 3-25 10-4 5-6 12-6 20s2 15 6 20c5 7 13 10 25 10h32V94h-29c-7 0-12-2-15-6-2-3-3-7-3-13s1-10 3-13c3-4 8-6 15-6h29V45h-32Z" transform="translate(0 -15)"/>
    <path d="M359 45c-11 0-18 3-23 9-4 5-6 12-6 21s2 16 6 21c5 6 12 9 23 9h22c11 0 18-3 23-9 4-5 6-12 6-21s-2-16-6-21c-5-6-12-9-23-9h-22Zm3 11h16c6 0 10 2 13 5 2 3 3 8 3 14s-1 11-3 14c-3 3-7 5-13 5h-16c-6 0-10-2-13-5-2-3-3-8-3-14s1-11 3-14c3-3 7-5 13-5Z" transform="translate(0 -15)"/>
    <path d="M415 45v45h15V57c0-1 1-2 3-2h8c2 0 3 1 3 2v33h15V57c0-1 1-2 3-2h8c2 0 3 1 3 2v33h15V55c0-7-6-10-17-10h-10c-5 0-9 1-13 3-4-2-8-3-13-3h-19Z"/>
  </g>
</svg>
